<svg xmlns="http://www.w3.org/2000/svg" width="100" height="100" viewBox="0 0 50 50">
    <style>
        .white-fill {
            fill: white;
            animation: pulse 8s infinite;
        }
        @keyframes pulse {
            0% {
                fill: white;
            }
            50% {
                fill: black;
            }
            100% {
                fill: white;
            }
        }
    </style>
    <path class="white-fill" d="M 25 2 C 12.264481 2 2 12.264481 2 25 C 2 37.735519 12.264481 48 25 48 C 37.735519 48 48 37.735519 48 25 C 48 12.264481 37.735519 2 25 2 z M 25 4 C 36.664481 4 46 13.335519 46 25 C 46 36.664481 36.664481 46 25 46 C 13.335519 46 4 36.664481 4 25 C 4 13.335519 13.335519 4 25 4 z M 21 10 L 21 13 L 16 13 L 16 37 L 21 37 L 21 40 L 23 40 L 23 37 L 25 37 L 25 40 L 27 40 L 27 37 C 29.3 36.9 34.800781 36.299219 34.800781 30.199219 C 34.800781 25.999219 31.199219 24.600391 29.699219 24.400391 L 29.699219 24.300781 C 30.399219 24.100781 33.900391 23.000391 33.900391 18.900391 C 33.900391 13.800391 29.1 13.1 27 13 L 27 10 L 25 10 L 25 13 L 23 13 L 23 10 L 21 10 z M 18.300781 14.900391 L 26.199219 14.900391 C 29.799219 14.900391 31.599609 16.400391 31.599609 19.400391 C 31.599609 20.600391 31.200781 21.500781 30.300781 22.300781 C 29.200781 23.200781 27.799219 23.5 26.199219 23.5 L 18.300781 23.5 L 18.300781 14.900391 z M 18.300781 25.5 L 26.199219 25.5 C 28.199219 25.5 29.800391 25.899219 30.900391 26.699219 C 32.000391 27.499219 32.5 28.699219 32.5 30.199219 C 32.5 30.599219 32.500391 31.000781 32.400391 31.300781 C 32.200391 32.400781 31.499609 33.499609 30.599609 34.099609 C 29.299609 34.999609 27.899219 34.999609 26.199219 35.099609 L 18.300781 35.099609 L 18.300781 25.5 z"></path>
</svg>
